<?xml version="1.0" standalone="no"?>
<!DOCTYPE svg PUBLIC "-//W3C//DTD SVG 20010904//EN"
 "http://www.w3.org/TR/2001/REC-SVG-20010904/DTD/svg10.dtd">
<svg version="1.0" xmlns="http://www.w3.org/2000/svg"
 width="800.000000pt" height="300.000000pt" viewBox="0 0 800.000000 300.000000"
 preserveAspectRatio="xMidYMid meet">
<metadata>
Created by potrace 1.16, written by Peter Selinger 2001-2019
</metadata>
<g transform="translate(0.000000,300.000000) scale(0.100000,-0.100000)"
fill="#000000" stroke="none">
<path d="M5123 2823 c-37 -5 -38 -6 -21 -33 7 -10 9 -22 6 -26 -6 -5 -107 22
-157 43 -11 4 -12 0 -7 -20 3 -14 2 -29 -4 -32 -12 -8 -4 -47 22 -103 11 -24
18 -46 14 -49 -3 -3 6 -25 20 -48 21 -37 23 -46 13 -69 -14 -31 -14 -31 35
-51 l38 -16 -8 33 c-5 18 -8 49 -9 68 0 35 0 35 40 33 64 -4 164 16 216 43
l49 24 16 -37 c11 -26 14 -53 10 -88 l-6 -50 21 25 c28 32 69 115 69 137 0 9
-20 38 -44 63 -24 25 -48 59 -53 75 -17 58 -142 95 -260 78z"/>
<path d="M5395 2162 c-2 -2 4 -16 12 -31 15 -26 14 -36 -27 -187 -23 -87 -45
-169 -47 -181 -3 -13 -9 -23 -14 -23 -5 0 -82 54 -172 120 l-164 120 -58 -20
c-84 -29 -88 -28 -69 20 9 23 14 43 11 46 -7 7 -124 -49 -172 -83 -76 -54
-128 -172 -140 -315 l-7 -77 49 -35 c106 -78 202 -116 257 -102 14 3 33 19 42
36 10 16 21 27 26 24 14 -9 9 -264 -7 -378 -8 -59 -15 -120 -14 -134 1 -15 -8
-48 -20 -74 -12 -26 -26 -82 -31 -125 -17 -135 -27 -357 -18 -384 5 -14 33
-41 66 -63 l57 -38 6 64 c4 35 7 110 8 168 1 58 6 134 11 170 13 84 48 200 60
200 5 0 3 -18 -5 -41 -34 -94 -48 -213 -49 -394 l-1 -180 60 -12 c70 -15 145
-4 160 23 6 9 40 51 78 92 l67 75 0 123 0 123 31 36 c17 19 38 35 46 35 8 0
11 5 7 12 -5 8 -2 9 12 4 71 -29 88 -26 99 15 6 23 1 30 -28 48 -19 12 -38 28
-41 36 -6 16 -35 19 -74 8 -24 -6 -24 -12 -7 -58 13 -32 -51 32 -68 69 -26 56
-30 76 -14 76 16 0 26 45 30 133 1 34 -1 46 -10 42 -27 -10 -11 27 30 68 38
40 46 43 85 41 29 -2 54 3 75 16 18 11 39 20 48 20 21 0 25 11 34 84 7 50 10
57 34 61 57 12 132 58 160 99 38 58 53 95 45 119 -6 18 -8 17 -19 -11 -28 -66
-107 -134 -182 -157 -20 -6 -23 -3 -23 23 0 25 6 32 44 46 50 19 118 83 142
134 18 39 16 79 -12 201 -19 83 -50 126 -111 156 -21 10 -50 24 -65 32 -30 15
-38 4 -13 -17 25 -21 17 -28 -36 -35 l-51 -7 -84 -129 c-47 -71 -87 -129 -89
-129 -3 0 26 62 64 138 56 112 91 211 91 258 0 4 -101 9 -105 6z m200 -340
c11 -39 18 -40 43 -7 25 31 32 31 32 2 0 -24 -21 -50 -204 -252 -55 -60 -101
-112 -102 -114 -5 -6 -557 302 -576 322 -19 18 -24 37 -9 37 5 0 64 -31 132
-69 68 -38 195 -107 281 -154 l157 -85 105 113 c103 111 104 114 99 153 -11
82 21 123 42 54z"/>
<path d="M4981 2149 c-24 -5 -45 -10 -47 -12 -2 -1 76 -81 173 -177 186 -184
185 -181 -3 56 -66 83 -72 93 -59 110 28 36 19 39 -64 23z"/>
<path d="M4540 1477 c0 -13 10 -33 23 -44 42 -40 150 -103 203 -120 65 -20
105 -8 128 42 23 48 19 62 -9 31 -36 -39 -86 -35 -179 13 -42 21 -93 53 -115
70 -47 37 -51 38 -51 8z"/>
<path d="M5464 1146 c-40 -40 -44 -75 -14 -124 17 -28 24 -31 47 -26 67 16 90
31 97 64 14 71 8 90 -29 106 -50 20 -63 18 -101 -20z"/>
<path d="M5756 992 c-3 -5 -23 -14 -44 -21 -38 -13 -40 -15 -45 -70 -7 -61 5
-81 49 -81 31 0 94 72 94 108 0 43 -38 89 -54 64z"/>
<path d="M5380 225 c0 -3 11 -31 24 -63 13 -31 29 -74 36 -95 17 -55 74 -71
161 -47 l37 10 16 89 c21 118 23 112 -25 96 -54 -19 -145 -19 -199 0 -47 17
-50 17 -50 10z"/>
</g>
</svg>
