<?xml version="1.0" standalone="no"?>
<!DOCTYPE svg PUBLIC "-//W3C//DTD SVG 20010904//EN"
 "http://www.w3.org/TR/2001/REC-SVG-20010904/DTD/svg10.dtd">
<svg version="1.0" xmlns="http://www.w3.org/2000/svg"
 width="640.000000pt" height="1280.000000pt" viewBox="0 0 640.000000 1280.000000"
 preserveAspectRatio="xMidYMid meet">
<metadata>
Created by potrace 1.15, written by Peter Selinger 2001-2017
</metadata>
<g transform="translate(0.000000,1280.000000) scale(0.100000,-0.100000)"
fill="#000000" stroke="none">
<path d="M3770 12789 c-337 -29 -606 -109 -817 -241 l-81 -52 -7 -115 c-17
-263 7 -550 60 -733 21 -75 21 -78 3 -83 -25 -8 -37 -35 -48 -102 -22 -130 69
-353 167 -414 38 -24 97 -18 115 11 10 16 18 6 61 -69 112 -195 255 -344 431
-446 l49 -28 -6 -146 c-3 -80 -11 -164 -17 -186 -28 -94 -86 -133 -248 -165
-56 -11 -148 -29 -204 -40 -57 -11 -164 -36 -238 -56 -126 -33 -137 -38 -173
-77 -53 -57 -102 -165 -131 -288 -49 -204 -64 -267 -126 -504 -35 -132 -63
-248 -64 -259 -1 -13 10 -23 37 -32 32 -11 37 -11 37 2 0 7 5 14 10 14 6 0 8
-15 5 -37 -4 -21 -16 -121 -29 -223 l-23 -185 87 -120 87 -120 162 3 161 4 0
-294 c-1 -161 -5 -522 -10 -803 -8 -477 -10 -513 -29 -557 -97 -226 -175
-1026 -246 -2508 -3 -63 -8 -136 -11 -162 l-6 -48 42 0 42 0 -5 -162 c-3 -90
-10 -197 -16 -238 -24 -166 -33 -443 -41 -1230 -4 -454 -8 -826 -9 -826 -1 -1
-21 -7 -46 -14 -25 -7 -47 -16 -50 -19 -2 -4 3 -60 12 -125 8 -64 13 -120 10
-123 -3 -2 -70 -16 -149 -29 -203 -35 -383 -78 -528 -127 l-125 -42 46 92
c132 263 138 583 14 850 -125 271 -362 467 -665 550 -99 27 -376 24 -483 -5
-349 -96 -612 -363 -709 -720 -31 -113 -31 -353 0 -470 43 -167 122 -313 235
-438 l56 -61 -53 -25 c-28 -14 -66 -38 -84 -53 -242 -203 283 -415 1028 -415
290 0 547 29 751 83 61 16 94 21 115 15 257 -74 679 -138 1149 -175 276 -21
1068 -25 1335 -5 359 26 682 65 905 108 559 108 874 265 852 424 -18 138 -261
266 -687 363 -85 19 -172 38 -192 42 -45 7 -45 10 -23 175 7 57 12 107 10 111
-3 3 -24 12 -48 18 l-44 13 -6 240 c-4 133 -7 419 -7 637 -1 616 -20 1081 -54
1286 -6 39 -10 121 -8 182 l3 113 27 0 c52 0 52 2 42 190 -5 96 -16 346 -25
555 -30 751 -50 1091 -86 1434 -29 282 -67 541 -83 576 -12 23 -26 220 -61
815 -25 432 -45 793 -45 804 0 14 6 17 26 13 23 -4 35 8 115 114 49 65 89 127
89 139 0 13 7 20 20 20 11 0 51 14 89 31 l69 31 6 51 c31 278 32 560 2 707 -8
41 -29 161 -46 265 -35 210 -70 343 -98 368 -17 15 -89 33 -407 98 -179 37
-458 110 -537 140 -149 58 -220 176 -243 405 l-6 60 73 46 c157 100 288 235
378 387 l40 69 34 -9 c20 -6 43 -6 58 0 56 21 137 144 172 260 28 95 16 228
-24 261 -17 14 -16 19 11 115 44 149 70 313 76 477 l6 147 -37 17 c-20 10 -36
22 -36 27 0 6 26 49 59 96 32 47 77 117 100 154 l42 69 -128 -6 c-70 -4 -180
-9 -243 -12 -71 -3 -111 -2 -105 4 6 5 70 29 143 53 128 42 132 44 95 51 -166
31 -887 56 -1093 37z m-723 -3851 c-3 -8 -6 -5 -6 6 -1 11 2 17 5 13 3 -3 4
-12 1 -19z m1055 -4116 c42 -125 145 -431 229 -679 l154 -453 47 0 c46 0 47
-1 57 -37 34 -130 55 -255 91 -543 22 -179 56 -446 75 -595 19 -148 57 -450
84 -670 28 -220 55 -439 61 -487 12 -89 9 -108 -14 -108 -8 0 -29 -7 -49 -15
l-35 -14 18 -88 c10 -48 17 -89 15 -91 -2 -2 -65 2 -142 8 -199 17 -1021 24
-1237 11 -99 -6 -181 -9 -182 -8 -1 1 6 39 16 85 l18 83 -26 11 c-15 6 -38 14
-52 18 -23 6 -25 11 -22 61 3 58 100 844 207 1669 36 278 75 548 88 600 l23
95 49 0 49 0 195 687 c108 379 198 688 201 688 3 0 39 -102 82 -228z"/>
</g>
</svg>
